<svg width="352" height="162" viewBox="0 0 352 162" fill="none" xmlns="http://www.w3.org/2000/svg">
<g filter="url(#filter0_df_3366_238)">
<path d="M107.791 89.5333C104.915 95.6168 100.049 100.541 93.9936 103.496C87.9386 106.451 81.0557 107.26 74.4785 105.789C67.9014 104.319 62.0222 100.656 57.8093 95.4059C53.5963 90.1554 51.3008 83.6295 51.3008 76.903C51.3008 70.1766 53.5963 63.6507 57.8093 58.4001C62.0222 53.1496 67.9014 49.4875 74.4785 48.0169C81.0557 46.5464 87.9386 47.3551 93.9936 50.3098C100.049 53.2646 104.915 58.1893 107.791 64.2728C105.035 59.8038 100.893 56.3545 95.994 54.4488C91.095 52.5431 85.7065 52.2852 80.6472 53.7143C75.5879 55.1433 71.1342 58.1812 67.9626 62.3665C64.7911 66.5517 63.0749 71.6557 63.0749 76.903C63.0749 82.1504 64.7911 87.2543 67.9626 91.4396C71.1342 95.6249 75.5879 98.6628 80.6472 100.092C85.7065 101.521 91.095 101.263 95.994 99.3573C100.893 97.4516 105.035 94.0023 107.791 89.5333ZM87.2478 54.266C83.1513 54.2722 79.1334 55.3876 75.6221 57.4933C72.1109 59.599 69.238 62.6161 67.3098 66.223C69.5718 63.0842 72.7731 60.7423 76.4533 59.5342C80.1334 58.3261 84.1027 58.3142 87.7901 59.5C91.4776 60.6858 94.693 63.0084 96.974 66.1335C99.2549 69.2586 100.484 73.0252 100.484 76.8914C100.484 80.7577 99.2549 84.5243 96.974 87.6494C94.693 90.7745 91.4776 93.097 87.7901 94.2828C84.1027 95.4687 80.1334 95.4567 76.4533 94.2486C72.7731 93.0405 69.5718 90.6986 67.3098 87.5598C69.2086 91.0674 72.0045 94.0103 75.4132 96.0893C78.8218 98.1682 82.7215 99.309 86.7153 99.3954C90.7092 99.4818 94.6547 98.5108 98.1505 96.5813C101.646 94.6517 104.567 91.8325 106.617 88.4103C108.666 84.9882 109.77 81.0854 109.817 77.099C109.864 73.1126 108.852 69.185 106.884 65.7157C104.916 62.2463 102.063 59.3592 98.6133 57.3481C95.1641 55.3369 91.2426 54.2735 87.2478 54.266ZM83.1066 87.9545C83.7481 86.6303 84.528 85.3773 85.4331 84.2165C86.3706 82.9974 87.4054 81.8561 88.5274 80.8036C89.8615 79.5333 91.3367 78.4193 92.9244 77.4835L93.855 76.9262L92.9244 76.369C91.3396 75.411 89.865 74.282 88.5274 73.0025C87.411 71.9445 86.3766 70.8036 85.4331 69.5895C84.5389 68.4211 83.7598 67.1693 83.1066 65.8515L82.525 64.5514L81.9434 65.8748C81.2792 67.1864 80.5007 68.4372 79.6169 69.6128C78.6869 70.831 77.6599 71.9724 76.546 73.0257C75.2358 74.2845 73.7927 75.3977 72.242 76.3458L71.2881 76.903L72.242 77.4835C73.8396 78.4241 75.3229 79.546 76.6623 80.8268C77.7818 81.8747 78.8092 83.0166 79.7332 84.2397C80.6287 85.4073 81.4078 86.6592 82.0597 87.9777L82.6413 89.2779L83.1066 87.9545Z" fill="white"/>
<path d="M149.02 78.3641V53.3125H157.348V78.3641H149.02Z" fill="white"/>
<path d="M177.655 53.0852C180.384 53.0439 183.108 53.3166 185.775 53.8978C187.713 54.2762 189.546 55.0682 191.149 56.2195C192.39 57.1218 193.376 58.3296 194.01 59.7253C194.641 61.191 194.95 62.7742 194.918 64.3688H186.356C186.356 64.3688 186.356 64.1134 186.356 63.9045C186.185 63.5564 185.974 63.2292 185.728 62.9293C185.331 62.442 184.86 62.0191 184.332 61.6756C183.476 61.2006 182.549 60.8637 181.587 60.6773C180.27 60.3595 178.917 60.2113 177.562 60.2361C176.368 60.2253 175.175 60.3342 174.003 60.5612C173.192 60.7202 172.409 60.9938 171.676 61.3738C171.118 61.6854 170.64 62.1227 170.28 62.6507C169.958 63.0992 169.722 63.6029 169.582 64.1367C169.466 64.6704 169.411 65.2157 169.419 65.7619C169.39 66.5526 169.517 67.3414 169.792 68.0836C170.093 68.7589 170.537 69.361 171.095 69.8481C171.827 70.4573 172.698 70.8796 173.63 71.0787C174.942 71.3804 176.286 71.5207 177.632 71.4966C179.051 71.5138 180.469 71.3972 181.866 71.1483C182.775 71.0025 183.655 70.7125 184.472 70.2893C184.954 70.0145 185.393 69.6702 185.775 69.2677C186.012 68.9974 186.172 68.6687 186.24 68.3158V67.9443H194.801C194.812 69.0603 194.655 70.1715 194.336 71.2412C193.982 72.3003 193.42 73.2788 192.684 74.1201C191.834 75.0994 190.788 75.8902 189.613 76.4419C188.063 77.164 186.418 77.6642 184.728 77.9278C182.423 78.325 180.087 78.5115 177.748 78.485C175.007 78.5307 172.27 78.2816 169.582 77.7421C167.667 77.3819 165.86 76.5876 164.301 75.4203C163.014 74.4342 162.03 73.1067 161.463 71.5894C160.857 69.8122 160.581 67.9397 160.649 66.0637C160.586 63.9898 160.958 61.9257 161.742 60.004C162.428 58.3731 163.566 56.9715 165.022 55.9641C166.612 54.8946 168.4 54.1527 170.28 53.7817C172.705 53.2755 175.179 53.0418 177.655 53.0852Z" fill="white"/>
<path d="M221.138 53.3125H229.513V78.3641H221.138V69.6576H206.225V78.3641H197.873V53.3125H206.225V61.9726H221.138V53.3125Z" fill="white"/>
<path d="M256.453 53.3848L267.667 78.3667H258.059L256.174 74.1644H243.751L241.866 78.3667H232.258L243.495 53.3848H256.453ZM246.729 66.9437H253.196L249.939 60.3732L246.729 66.9437Z" fill="white"/>
<path d="M283.4 53.3848C285.726 53.3848 287.564 53.3848 289.169 53.5473C290.602 53.624 292.026 53.8181 293.427 54.1277C294.464 54.3347 295.466 54.6864 296.405 55.1725C297.149 55.5844 297.787 56.1649 298.266 56.8674C298.753 57.5687 299.1 58.3569 299.29 59.1891C299.493 60.2369 299.586 61.3029 299.569 62.3699H290.705C290.716 62.065 290.652 61.762 290.519 61.4876C290.278 61.2121 289.975 60.9973 289.635 60.8608C288.948 60.6054 288.226 60.4566 287.494 60.4196C286.494 60.4196 285.168 60.4196 283.609 60.4196C281.492 60.4196 279.956 60.4196 278.956 60.5589C278.318 60.5675 277.687 60.6934 277.095 60.9304C276.959 60.9972 276.848 61.1049 276.777 61.2382C276.706 61.3716 276.679 61.5238 276.699 61.6734C276.699 61.9829 277.025 62.1919 277.677 62.3003C278.305 62.3003 280.212 62.5789 283.376 62.8575C287.394 63.0807 291.394 63.5381 295.358 64.2273C296.226 64.3352 297.06 64.6298 297.804 65.0908C298.547 65.5518 299.181 66.1681 299.662 66.8973C300.14 68.075 300.355 69.3429 300.29 70.6121C300.312 71.5541 300.234 72.4958 300.057 73.4214C299.908 74.1646 299.59 74.8637 299.127 75.4645C298.66 76.0864 298.044 76.5813 297.335 76.904C296.346 77.3293 295.306 77.6258 294.241 77.7863C292.756 78.0391 291.256 78.2019 289.751 78.2738C288.076 78.2738 285.982 78.3899 283.469 78.3899C281.771 78.3899 280.282 78.3899 279.026 78.3899C277.77 78.3899 276.699 78.3899 275.513 78.1345C274.602 78.0549 273.699 77.8996 272.814 77.6702C272.14 77.5001 271.491 77.2425 270.883 76.904C270.374 76.6196 269.918 76.2506 269.534 75.8128C269.187 75.349 268.92 74.8312 268.743 74.2804C268.522 73.6491 268.374 72.9948 268.301 72.3302C268.301 71.6337 268.301 70.821 268.301 69.8691H276.979C276.962 70.192 277.034 70.5133 277.188 70.7978C277.188 71.0068 277.63 71.1693 278.142 71.3318C278.828 71.4989 279.53 71.5923 280.236 71.6104C281.12 71.6104 282.399 71.6104 284.028 71.6104H284.889C286.542 71.6494 288.196 71.6029 289.844 71.4711C289.963 71.4681 290.081 71.4417 290.19 71.3934C290.298 71.3451 290.397 71.2758 290.479 71.1896C290.561 71.1033 290.625 71.0018 290.668 70.8908C290.711 70.7797 290.731 70.6614 290.728 70.5424C290.728 70.2406 290.519 70.0317 290.123 69.9388C289.006 69.7682 287.879 69.6597 286.75 69.6137L283.423 69.3583L280.189 69.0797L277.397 68.7779C276.281 68.6386 275.443 68.4993 274.885 68.3832L272.837 67.8724C272.21 67.752 271.61 67.5157 271.069 67.1759C270.62 66.8886 270.185 66.5786 269.767 66.2472C269.339 65.9329 268.995 65.5182 268.766 65.0399C268.551 64.5561 268.364 64.0599 268.208 63.554C268.055 62.9309 267.976 62.2918 267.975 61.6502C267.968 60.8723 268.031 60.0953 268.161 59.3284C268.259 58.7141 268.431 58.1138 268.673 57.5407C268.875 57.024 269.175 56.551 269.557 56.1476C269.92 55.7558 270.326 55.4054 270.767 55.1029C271.28 54.7417 271.845 54.4599 272.442 54.267C273.117 54.0813 273.791 53.9188 274.466 53.8027C275.297 53.6662 276.137 53.5809 276.979 53.5473L279.933 53.408L283.4 53.3848Z" fill="white"/>
<path d="M142.853 64.3691H125.754C123.792 64.3691 121.91 65.147 120.522 66.5316C119.135 67.9162 118.355 69.7941 118.355 71.7523V78.3692H125.8V71.7523H139.247L142.853 64.3691Z" fill="white"/>
<path d="M148.205 53.2617H118.426C118.426 55.2078 119.196 57.0753 120.568 58.4579C121.94 59.8405 123.804 60.6265 125.754 60.6449H144.575L148.205 53.2617Z" fill="white"/>
<path d="M133.775 80.3399C135.782 80.3193 137.788 80.4434 139.778 80.7114C141.433 80.9445 143.057 81.3651 144.617 81.9651C145.974 82.4812 147.21 83.2717 148.246 84.2869C149.236 85.3299 149.99 86.573 150.456 87.932C151.042 89.5957 151.34 91.3462 151.34 93.1095C151.373 94.8302 151.137 96.5455 150.642 98.1941C150.224 99.5271 149.535 100.76 148.618 101.816C147.667 102.836 146.498 103.63 145.198 104.138C143.657 104.779 142.038 105.216 140.383 105.438C138.308 105.716 136.217 105.847 134.124 105.833C128.192 105.833 123.911 104.765 121.212 102.605C119.811 101.357 118.719 99.8019 118.021 98.0618C117.322 96.3217 117.037 94.4439 117.187 92.5755C117.054 90.8087 117.36 89.0364 118.078 87.4161C118.797 85.7959 119.905 84.3779 121.305 83.2885C125.058 81.045 129.413 80.0151 133.775 80.3399ZM134.101 99.3318C136.169 99.4589 138.224 98.9219 139.964 97.7994C140.664 97.2539 141.218 96.5451 141.58 95.7354C141.941 94.9258 142.097 94.04 142.034 93.1559C142.088 92.2612 141.915 91.3674 141.533 90.5563C141.151 89.7451 140.572 89.0424 139.847 88.5124C138.11 87.3796 136.057 86.8268 133.985 86.9337C132.84 86.9209 131.699 87.0536 130.588 87.3284C129.736 87.5737 128.944 87.9927 128.262 88.5589C127.645 89.0959 127.166 89.7726 126.866 90.5324C126.536 91.3588 126.377 92.2434 126.4 93.1327C126.367 93.9851 126.525 94.8342 126.863 95.6176C127.201 96.4011 127.711 97.099 128.355 97.6601C130.012 98.878 132.048 99.4703 134.101 99.3318Z" fill="white"/>
<path d="M186.243 105.786H174.866L162.559 90.6947V105.786H154.207V80.7344H165.839L177.937 95.5703V80.7344H186.243V105.786Z" fill="white"/>
<path d="M198.368 97.4741H216.491V105.786H190.039V80.7344H198.368V97.4741Z" fill="white"/>
<path d="M220.256 105.786V80.7344H228.608V105.786H220.256Z" fill="white"/>
<path d="M264.479 105.786H253.103L240.796 90.6947V105.786H232.467V80.7344H244.099L256.197 95.5703V80.7344H264.479V105.786Z" fill="white"/>
<path d="M268.57 80.7344H295.069V87.6996H276.969V90.0213H295.139V96.708H276.969V99.0297H295.139V105.995H268.57V80.7344Z" fill="white"/>
</g>
<defs>
<filter id="filter0_df_3366_238" x="0.000782013" y="0.000782013" width="351.6" height="161.805" filterUnits="userSpaceOnUse" color-interpolation-filters="sRGB">
<feFlood flood-opacity="0" result="BackgroundImageFix"/>
<feColorMatrix in="SourceAlpha" type="matrix" values="0 0 0 0 0 0 0 0 0 0 0 0 0 0 0 0 0 0 127 0" result="hardAlpha"/>
<feOffset dy="4"/>
<feGaussianBlur stdDeviation="25.65"/>
<feComposite in2="hardAlpha" operator="out"/>
<feColorMatrix type="matrix" values="0 0 0 0 0.986298 0 0 0 0 0.725962 0 0 0 0 1 0 0 0 0.82 0"/>
<feBlend mode="screen" in2="BackgroundImageFix" result="effect1_dropShadow_3366_238"/>
<feBlend mode="normal" in="SourceGraphic" in2="effect1_dropShadow_3366_238" result="shape"/>
<feGaussianBlur stdDeviation="0.4" result="effect2_foregroundBlur_3366_238"/>
</filter>
</defs>
</svg>
